<svg width="40" height="40" viewBox="0 0 40 40" fill="none" xmlns="http://www.w3.org/2000/svg">
<rect width="40" height="40" rx="10" fill="#074799"/>
<path d="M14 30.6901C15.0605 30.6891 16.0773 30.2673 16.8273 29.5174C17.5772 28.7675 17.9989 27.7507 18 26.6901V13.9538C18.0002 13.8441 18.0365 13.7375 18.1032 13.6503C18.1698 13.5632 18.2632 13.5003 18.3691 13.4713L27.3691 11.0172C27.4432 10.9971 27.5211 10.9943 27.5965 11.0092C27.6719 11.024 27.7428 11.056 27.8039 11.1027C27.8649 11.1494 27.9143 11.2096 27.9483 11.2785C27.9824 11.3474 28 11.4233 28 11.5001V20.0721C27.3821 19.3743 26.539 18.9154 25.6175 18.7754C24.696 18.6355 23.7547 18.8234 22.9575 19.3064C22.1604 19.7894 21.5581 20.5369 21.2555 21.4185C20.953 22.3 20.9694 23.2598 21.302 24.1305C21.6346 25.0012 22.2622 25.7276 23.0754 26.1829C23.8886 26.6383 24.8359 26.7939 25.752 26.6224C26.6682 26.451 27.4951 25.9635 28.0886 25.2449C28.6822 24.5263 29.0047 23.6221 29 22.6901C28.994 22.5225 28.9773 22.3555 28.95 22.1901H29V11.5001C29 11.2695 28.9468 11.0419 28.8446 10.8352C28.7424 10.6284 28.5938 10.448 28.4106 10.308C28.2273 10.168 28.0142 10.0721 27.7878 10.0279C27.5615 9.98362 27.328 9.99215 27.1055 10.0528L18.1055 12.5069C17.7883 12.594 17.5085 12.7827 17.3088 13.044C17.1091 13.3053 17.0006 13.6249 17 13.9538V24.0721C16.5605 23.5687 16.0016 23.1836 15.3746 22.9522C14.7476 22.7208 14.0726 22.6506 13.4114 22.7478C12.7502 22.8451 12.124 23.1068 11.5902 23.5089C11.0564 23.911 10.6321 24.4407 10.3562 25.0494C10.0802 25.6581 9.96153 26.3263 10.0109 26.9928C10.0603 27.6592 10.2762 28.3027 10.6389 28.864C11.0015 29.4254 11.4992 29.8868 12.0865 30.2058C12.6737 30.5248 13.3317 30.6914 14 30.6901Z" fill="white"/>
</svg>
